<svg version="1.1" id="Layer_1" xmlns="http://www.w3.org/2000/svg" xmlns:xlink="http://www.w3.org/1999/xlink" x="0px" y="0px"
	 width="100%" viewBox="0 0 200 200" enable-background="new 0 0 200 200" xml:space="preserve">
<path fill="#000000" opacity="1.000000" stroke="none" 
	d="
M117.000000,201.000000 
	C78.024071,201.000000 39.548149,201.000000 1.036112,201.000000 
	C1.036112,134.399109 1.036112,67.798203 1.036112,1.098643 
	C67.559090,1.098643 134.118378,1.098643 200.838837,1.098643 
	C200.838837,67.666351 200.838837,134.333145 200.838837,201.000000 
	C173.131821,201.000000 145.315903,201.000000 117.000000,201.000000 
M172.821930,84.407875 
	C172.241241,83.912346 171.660568,83.416824 170.649887,82.329880 
	C163.836823,77.258018 153.515244,81.470589 151.407333,87.281235 
	C149.393753,92.831924 149.864899,93.833969 155.976364,94.728104 
	C155.328888,96.230133 154.681427,97.732170 153.259308,99.112267 
	C149.729721,99.120773 149.761459,101.720322 150.367844,103.876701 
	C150.636047,104.830498 152.621994,105.606239 153.949997,105.887466 
	C156.083176,106.339211 157.462662,105.486015 157.185944,102.305046 
	C159.098862,102.251205 161.011795,102.197365 162.945862,102.941406 
	C162.737686,106.836693 165.258759,106.298538 167.545761,105.588821 
	C175.325516,103.174545 178.623520,94.070076 174.282623,85.933769 
	C173.879929,85.599403 173.477234,85.265045 172.821930,84.407875 
M92.561928,121.506676 
	C94.223839,120.518173 95.885750,119.529663 97.508469,118.564468 
	C98.349770,119.355972 99.049553,120.589363 99.794762,120.617455 
	C103.314804,120.750130 107.006866,121.105156 110.284096,120.157898 
	C111.353249,119.848869 111.488014,115.856476 111.782196,113.515015 
	C111.920464,112.414467 111.408440,111.236801 111.218269,110.089584 
	C110.510452,105.819778 107.465355,104.630386 103.868385,105.294571 
	C100.975739,105.828712 97.035889,106.342232 99.228752,111.346115 
	C99.414879,111.770828 97.188606,114.057449 96.626381,113.867859 
	C94.017502,112.988091 91.600296,111.539955 89.114464,110.295303 
	C89.249077,109.998100 89.383698,109.700897 89.518318,109.403694 
	C91.588196,109.878639 93.658073,110.353584 95.727951,110.828529 
	C96.083855,110.205742 96.439758,109.582954 96.795662,108.960175 
	C94.885223,107.693062 92.985985,105.430145 91.061531,105.408478 
	C88.602791,105.380806 84.697243,106.521080 83.908524,108.277565 
	C81.008545,114.735809 88.671005,113.914268 91.674988,117.186157 
	C90.303833,117.412979 89.698120,117.582481 89.087776,117.601219 
	C87.218567,117.658577 85.347572,117.658043 83.477272,117.680031 
	C85.270035,119.072044 86.974403,120.609665 88.901947,121.779617 
	C89.607216,122.207695 90.841988,121.763412 92.561928,121.506676 
M74.708221,105.194466 
	C68.684959,105.408615 69.272926,109.961082 68.496803,114.039749 
	C67.817764,117.608223 68.504463,120.595619 71.895721,121.031937 
	C74.996651,121.430916 79.483894,121.044785 81.332352,119.088509 
	C85.067886,115.135124 81.032196,106.546455 74.708221,105.194466 
M147.692444,109.320732 
	C146.292007,105.845573 143.477371,104.850845 140.075470,105.193207 
	C133.580704,105.846809 137.296860,112.391022 134.488892,115.353935 
	C133.917953,115.956375 135.069962,119.674889 135.945877,119.895020 
	C138.907883,120.639435 142.230881,121.025185 145.149689,120.367203 
	C146.431534,120.078247 147.364014,117.022003 147.908264,115.069809 
	C148.331680,113.550987 147.908142,111.796059 147.692444,109.320732 
M42.112396,111.099312 
	C42.100346,113.254387 41.867943,115.441086 42.170734,117.550980 
	C42.318481,118.580498 43.463886,119.466850 44.157719,120.418007 
	C44.751312,119.542152 45.547249,118.735909 45.879498,117.770142 
	C46.188980,116.870529 45.713314,115.666512 46.097652,114.833939 
	C46.956924,112.972557 48.136513,111.259056 49.185631,109.485321 
	C50.131893,111.133812 51.199631,112.726273 51.992733,114.445419 
	C52.920544,116.456551 53.608982,118.578110 54.401272,120.651764 
	C55.251408,118.450439 56.131691,116.259895 56.925640,114.038490 
	C57.080120,113.606262 56.940357,113.047562 56.865463,112.558037 
	C56.298737,108.853844 54.825897,105.736855 50.696167,105.183495 
	C46.681393,104.645531 43.450684,105.895172 42.112396,111.099312 
M59.550030,118.705574 
	C61.569420,120.901978 63.693119,121.834274 66.549843,119.121635 
	C61.630424,114.962898 61.856709,110.826584 67.157646,106.837364 
	C65.045464,105.288147 63.496086,103.709579 61.617184,102.982002 
	C60.818192,102.672600 58.316151,104.147285 58.317631,104.807297 
	C58.327511,109.213142 58.804722,113.617928 59.550030,118.705574 
M29.980228,105.738876 
	C29.918076,104.749588 30.112051,103.642059 29.724676,102.802895 
	C29.302914,101.889252 28.341576,101.224670 27.615482,100.451508 
	C26.782719,101.294182 25.227646,102.144547 25.236521,102.978256 
	C25.287285,107.746712 25.204016,112.629860 26.278889,117.213127 
	C26.658606,118.832237 30.175243,119.715675 32.259697,120.934990 
	C32.732044,119.889252 33.204388,118.843513 33.676731,117.797775 
	C28.016085,115.549637 30.593445,110.574455 29.980228,105.738876 
M132.218857,106.066689 
	C130.695389,105.113152 129.270309,103.788025 127.610710,103.348579 
	C126.649658,103.094109 124.323349,104.227730 124.301414,104.801292 
	C124.150307,108.752144 123.958359,112.817947 124.730377,116.655502 
	C125.536499,120.662613 128.333527,121.435310 132.241806,119.331001 
	C131.886826,118.790573 131.630219,118.181107 131.190720,117.764633 
	C126.764076,113.569847 126.864960,111.956047 131.711456,108.413353 
	C132.148239,108.094070 132.224167,107.281120 132.218857,106.066689 
M115.211494,106.720734 
	C114.480965,110.187737 113.546249,113.631676 113.150528,117.136482 
	C113.039032,118.123901 114.507622,119.289711 115.251472,120.373703 
	C115.832909,119.296288 116.790871,118.263031 116.923416,117.132973 
	C117.284698,114.052544 116.563446,110.684708 120.436798,109.065445 
	C121.295357,108.706512 121.796722,107.493164 122.462563,106.673241 
	C121.353020,106.168442 120.267799,105.339081 119.126823,105.253548 
	C118.065826,105.174004 116.945381,105.887207 115.211494,106.720734 
M39.968967,105.017258 
	C39.266743,103.909103 38.564518,102.800957 37.862289,101.692802 
	C37.242489,102.890404 36.161983,104.060242 36.087837,105.290726 
	C35.849625,109.244080 35.875847,113.224205 36.037800,117.184288 
	C36.087231,118.392982 36.904278,119.570290 37.369781,120.761971 
	C38.085602,120.702827 38.801426,120.643692 39.517246,120.584549 
	C39.676994,115.687744 39.836746,110.790939 39.968967,105.017258 
z"/>
<path fill="#091228" opacity="1.000000" stroke="none" 
	d="
M92.198563,121.611885 
	C90.841988,121.763412 89.607216,122.207695 88.901947,121.779617 
	C86.974403,120.609665 85.270035,119.072044 83.477272,117.680031 
	C85.347572,117.658043 87.218567,117.658577 89.087776,117.601219 
	C89.698120,117.582481 90.303833,117.412979 91.674988,117.186157 
	C88.671005,113.914268 81.008545,114.735809 83.908524,108.277565 
	C84.697243,106.521080 88.602791,105.380806 91.061531,105.408478 
	C92.985985,105.430145 94.885223,107.693062 96.795662,108.960175 
	C96.439758,109.582954 96.083855,110.205742 95.727951,110.828529 
	C93.658073,110.353584 91.588196,109.878639 89.518318,109.403694 
	C89.383698,109.700897 89.249077,109.998100 89.114464,110.295303 
	C91.600296,111.539955 94.017502,112.988091 96.626381,113.867859 
	C97.188606,114.057449 99.414879,111.770828 99.228752,111.346115 
	C97.035889,106.342232 100.975739,105.828712 103.868385,105.294571 
	C107.465355,104.630386 110.510452,105.819778 111.218269,110.089584 
	C111.408440,111.236801 111.920464,112.414467 111.782196,113.515015 
	C111.488014,115.856476 111.353249,119.848869 110.284096,120.157898 
	C107.006866,121.105156 103.314804,120.750130 99.794762,120.617455 
	C99.049553,120.589363 98.349770,119.355972 97.508469,118.564468 
	C95.885750,119.529663 94.223839,120.518173 92.198563,121.611885 
z"/>
<path fill="#091328" opacity="1.000000" stroke="none" 
	d="
M75.092484,105.178383 
	C81.032196,106.546455 85.067886,115.135124 81.332352,119.088509 
	C79.483894,121.044785 74.996651,121.430916 71.895721,121.031937 
	C68.504463,120.595619 67.817764,117.608223 68.496803,114.039749 
	C69.272926,109.961082 68.684959,105.408615 75.092484,105.178383 
z"/>
<path fill="#071227" opacity="1.000000" stroke="none" 
	d="
M147.776733,109.733398 
	C147.908142,111.796059 148.331680,113.550987 147.908264,115.069809 
	C147.364014,117.022003 146.431534,120.078247 145.149689,120.367203 
	C142.230881,121.025185 138.907883,120.639435 135.945877,119.895020 
	C135.069962,119.674889 133.917953,115.956375 134.488892,115.353935 
	C137.296860,112.391022 133.580704,105.846809 140.075470,105.193207 
	C143.477371,104.850845 146.292007,105.845573 147.776733,109.733398 
z"/>
<path fill="#091328" opacity="1.000000" stroke="none" 
	d="
M42.178848,110.682381 
	C43.450684,105.895172 46.681393,104.645531 50.696167,105.183495 
	C54.825897,105.736855 56.298737,108.853844 56.865463,112.558037 
	C56.940357,113.047562 57.080120,113.606262 56.925640,114.038490 
	C56.131691,116.259895 55.251408,118.450439 54.401268,120.651764 
	C53.608982,118.578110 52.920544,116.456551 51.992733,114.445419 
	C51.199631,112.726273 50.131893,111.133812 49.185631,109.485321 
	C48.136513,111.259056 46.956924,112.972557 46.097652,114.833939 
	C45.713314,115.666512 46.188980,116.870529 45.879498,117.770142 
	C45.547249,118.735909 44.751312,119.542152 44.157715,120.418007 
	C43.463886,119.466850 42.318481,118.580498 42.170734,117.550980 
	C41.867943,115.441086 42.100346,113.254387 42.178848,110.682381 
z"/>
<path fill="#091228" opacity="1.000000" stroke="none" 
	d="
M59.340099,118.364319 
	C58.804722,113.617928 58.327511,109.213142 58.317631,104.807297 
	C58.316151,104.147285 60.818192,102.672600 61.617184,102.982002 
	C63.496086,103.709579 65.045464,105.288147 67.157646,106.837364 
	C61.856709,110.826584 61.630424,114.962898 66.549843,119.121635 
	C63.693119,121.834274 61.569420,120.901978 59.340099,118.364319 
z"/>
<path fill="#071324" opacity="1.000000" stroke="none" 
	d="
M29.983852,106.195969 
	C30.593445,110.574455 28.016085,115.549637 33.676731,117.797775 
	C33.204388,118.843513 32.732044,119.889252 32.259697,120.934990 
	C30.175243,119.715675 26.658606,118.832237 26.278889,117.213127 
	C25.204016,112.629860 25.287285,107.746712 25.236521,102.978256 
	C25.227646,102.144547 26.782719,101.294182 27.615482,100.451508 
	C28.341576,101.224670 29.302914,101.889252 29.724676,102.802895 
	C30.112051,103.642059 29.918076,104.749588 29.983852,106.195969 
z"/>
<path fill="#071227" opacity="1.000000" stroke="none" 
	d="
M132.343262,106.382065 
	C132.224167,107.281120 132.148239,108.094070 131.711456,108.413353 
	C126.864960,111.956047 126.764076,113.569847 131.190720,117.764633 
	C131.630219,118.181107 131.886826,118.790573 132.241806,119.331001 
	C128.333527,121.435310 125.536499,120.662613 124.730377,116.655502 
	C123.958359,112.817947 124.150307,108.752144 124.301414,104.801292 
	C124.323349,104.227730 126.649658,103.094109 127.610710,103.348579 
	C129.270309,103.788025 130.695389,105.113152 132.343262,106.382065 
z"/>
<path fill="#091328" opacity="1.000000" stroke="none" 
	d="
M115.531303,106.486069 
	C116.945381,105.887207 118.065826,105.174004 119.126823,105.253548 
	C120.267799,105.339081 121.353020,106.168442 122.462563,106.673241 
	C121.796722,107.493164 121.295357,108.706512 120.436798,109.065445 
	C116.563446,110.684708 117.284698,114.052544 116.923416,117.132973 
	C116.790871,118.263031 115.832909,119.296288 115.251480,120.373703 
	C114.507622,119.289711 113.039032,118.123901 113.150528,117.136482 
	C113.546249,113.631676 114.480965,110.187737 115.531303,106.486069 
z"/>
<path fill="#0D182C" opacity="1.000000" stroke="none" 
	d="
M39.982731,105.455696 
	C39.836746,110.790939 39.676994,115.687744 39.517246,120.584549 
	C38.801426,120.643692 38.085602,120.702827 37.369781,120.761971 
	C36.904278,119.570290 36.087231,118.392982 36.037800,117.184288 
	C35.875847,113.224205 35.849625,109.244080 36.087837,105.290726 
	C36.161983,104.060242 37.242489,102.890404 37.862289,101.692802 
	C38.564518,102.800957 39.266743,103.909103 39.982731,105.455696 
z"/>
<path fill="#194BAC" opacity="1.000000" stroke="none" 
	d="
M155.794769,94.004211 
	C149.864899,93.833969 149.393753,92.831924 151.407333,87.281235 
	C153.515244,81.470589 163.836823,77.258018 170.753738,82.745224 
	C170.857590,83.160568 170.635727,83.400246 170.268250,83.279846 
	C161.446136,80.744919 156.182190,82.260536 153.303482,88.072517 
	C152.862457,88.962921 152.991608,90.135742 152.857056,91.177956 
	C153.928894,91.147682 155.000732,91.117416 156.232620,91.232170 
	C156.608307,91.570503 156.806351,91.780418 156.950638,92.210022 
	C156.914505,92.413094 156.873627,92.823540 156.775345,93.068130 
	C156.635483,93.483467 156.593887,93.654213 156.364563,93.876732 
	C156.176834,93.928513 155.794769,94.004211 155.794769,94.004211 
z"/>
<path fill="#194BAC" opacity="1.000000" stroke="none" 
	d="
M174.607132,86.352463 
	C178.623520,94.070076 175.325516,103.174545 167.545761,105.588821 
	C165.258759,106.298538 162.737686,106.836693 163.221375,102.524353 
	C163.687698,102.090401 163.878510,102.073494 164.284607,102.300491 
	C167.337219,105.126152 169.315796,102.928505 171.223053,101.206520 
	C175.659302,97.201187 174.788040,92.079292 174.144135,86.846840 
	C174.302094,86.685471 174.607132,86.352463 174.607132,86.352463 
z"/>
<path fill="#177CCB" opacity="1.000000" stroke="none" 
	d="
M164.069336,102.056587 
	C163.878510,102.073494 163.687698,102.090401 163.210815,102.125412 
	C161.011795,102.197365 159.098862,102.251205 156.735962,102.789185 
	C155.216293,103.246811 154.146606,103.220291 153.076935,103.193771 
	C153.395950,101.873917 153.714951,100.554062 154.033951,99.234200 
	C154.681427,97.732170 155.328888,96.230133 155.885559,94.366158 
	C155.794769,94.004211 156.176834,93.928513 156.496567,94.241669 
	C157.558914,98.984612 160.341736,99.247917 163.930756,98.337990 
	C164.042267,99.122452 164.085159,99.573891 164.117813,100.363510 
	C164.094833,101.153328 164.082092,101.604958 164.069336,102.056587 
z"/>
<path fill="#1F5CA5" opacity="1.000000" stroke="none" 
	d="
M153.646637,99.173233 
	C153.714951,100.554062 153.395950,101.873917 153.076935,103.193771 
	C154.146606,103.220291 155.216293,103.246811 156.567871,103.110825 
	C157.462662,105.486015 156.083176,106.339211 153.949997,105.887466 
	C152.621994,105.606239 150.636047,104.830498 150.367844,103.876701 
	C149.761459,101.720322 149.729721,99.120773 153.646637,99.173233 
z"/>
<path fill="#194BAC" opacity="1.000000" stroke="none" 
	d="
M170.968735,83.040932 
	C171.660568,83.416824 172.241241,83.912346 172.833313,84.781296 
	C172.844681,85.154716 172.614914,85.378830 172.394302,85.204773 
	C171.661041,84.487228 171.148376,83.943733 170.635727,83.400246 
	C170.635727,83.400246 170.857590,83.160568 170.968735,83.040932 
z"/>
<path fill="#194BAC" opacity="1.000000" stroke="none" 
	d="
M172.959610,85.042702 
	C173.477234,85.265045 173.879929,85.599403 174.444885,86.143112 
	C174.607132,86.352463 174.302094,86.685471 173.946655,86.666473 
	C173.265778,86.224586 172.940353,85.801704 172.614914,85.378830 
	C172.614914,85.378830 172.844681,85.154716 172.959610,85.042702 
z"/>
<path fill="#084CE5" opacity="1.000000" stroke="none" 
	d="
M172.394302,85.204773 
	C172.940353,85.801704 173.265778,86.224586 173.788696,86.827835 
	C174.788040,92.079292 175.659302,97.201187 171.223053,101.206520 
	C169.315796,102.928505 167.337219,105.126152 164.284607,102.300491 
	C164.082092,101.604958 164.094833,101.153328 164.510101,100.364075 
	C170.830902,99.071548 171.775711,95.464432 168.169113,86.995743 
	C165.485565,86.995743 162.700317,87.079865 159.922455,86.972717 
	C156.986832,86.859489 155.549545,87.970024 156.094223,91.051186 
	C156.082382,91.059578 156.072571,91.087151 156.072571,91.087151 
	C155.000732,91.117416 153.928894,91.147682 152.857056,91.177956 
	C152.991608,90.135742 152.862457,88.962921 153.303482,88.072517 
	C156.182190,82.260536 161.446136,80.744919 170.268250,83.279846 
	C171.148376,83.943733 171.661041,84.487228 172.394302,85.204773 
z"/>
<path fill="#18A3EB" opacity="1.000000" stroke="none" 
	d="
M163.862122,98.004959 
	C160.341736,99.247917 157.558914,98.984612 156.684296,94.189888 
	C156.593887,93.654213 156.635483,93.483467 157.080353,93.097916 
	C157.687302,92.890129 157.890976,92.897148 158.504410,92.945740 
	C162.680099,92.572662 164.772598,93.808182 163.862122,98.004959 
z"/>
<path fill="#177CCB" opacity="1.000000" stroke="none" 
	d="
M156.986771,92.006943 
	C156.806351,91.780418 156.608307,91.570503 156.232620,91.232170 
	C156.072571,91.087151 156.082382,91.059578 156.324402,91.108604 
	C156.849075,91.348808 157.009781,91.613960 157.033295,91.966766 
	C157.018051,91.980461 156.986771,92.006943 156.986771,92.006943 
z"/>
<path fill="#177CCB" opacity="1.000000" stroke="none" 
	d="
M158.094635,92.904160 
	C157.890976,92.897148 157.687302,92.890129 157.178619,92.853325 
	C156.873627,92.823540 156.914505,92.413094 156.950638,92.210022 
	C156.986771,92.006943 157.018051,91.980461 157.273682,92.039948 
	C157.717758,92.367668 157.906204,92.635918 158.094635,92.904160 
z"/>
<path fill="#000000" opacity="1.000000" stroke="none" 
	d="
M158.504410,92.945740 
	C157.906204,92.635918 157.717758,92.367668 157.288940,92.026253 
	C157.009781,91.613960 156.849075,91.348808 156.336243,91.100212 
	C155.549545,87.970024 156.986832,86.859489 159.922455,86.972717 
	C162.700317,87.079865 165.485565,86.995743 168.169113,86.995743 
	C171.775711,95.464432 170.830902,99.071548 164.520325,100.025894 
	C164.085159,99.573891 164.042267,99.122452 163.930756,98.337990 
	C164.772598,93.808182 162.680099,92.572662 158.504410,92.945740 
z"/>
</svg>